<?xml version="1.0" encoding="utf-8"?>
<!-- Generator: Adobe Illustrator 16.0.4, SVG Export Plug-In . SVG Version: 6.00 Build 0)  -->
<!DOCTYPE svg PUBLIC "-//W3C//DTD SVG 1.1//EN" "http://www.w3.org/Graphics/SVG/1.1/DTD/svg11.dtd">
<svg version="1.1" id="Layer_1" xmlns="http://www.w3.org/2000/svg" xmlns:xlink="http://www.w3.org/1999/xlink" x="0px" y="0px"
	 width="208px" height="151px" viewBox="0 0 208 151" enable-background="new 0 0 208 151" xml:space="preserve">
<g id="Layer_5">
	<path fill="#E9A3C8" d="M43.687,19.851c1.095-4.325,6.604-9.893,10.263-11.33c3.656-1.439,6.297-4.273,12.312-4.319
		c2.211-0.017-2.176,10.128-2.286,12.493c-0.292,6.24,0.356,12.386-2.479,17.875c-3.916,7.569-14.812,1.718-16.085,0.071
		C40.164,27.863,42.774,23.46,43.687,19.851z"/>
	<path fill="#EAA3C8" stroke="#EAA3C8" stroke-miterlimit="10" d="M189.857,62.214c-0.336-4.836-1.258-11.092-2.365-15.389
		c-0.691-2.673-6.967-8.923-9.154-10.479c-5.25-3.724-9.141-4.879-15.666-3.896c-8.729,1.313-41.281,2.215-49.537,3.245
		c0,0-14.482-0.694-18.111-1.446c-4.148-0.861-7.815-2.271-12.041-2.507c-3.253-0.183-4.688-0.539-7.263-2.258
		c-3.336-2.227-6.304-4.596-9.529-7.024c-3.959-2.979-8.537-3.123-12.727-5.164c-5.258-2.562-11.242-0.777-17.182-1.147
		c-5.844-0.363-10.414,0.407-15.96,2.171c-2.335,0.743-4.562,1.193-7.178,1.25c-1.964,0.043-5.896-2.447-7.226-1.828
		c-2.649,1.235-1.804,12.691,1.228,12.812c0.191,3.903,0.762,6.064,3.261,9.265c1.824,2.341,4.825,5.435,7.415,6.868
		c1.802,0.998,3.898,0.938,5.89,2.023c1.953,1.066,3.715,2.107,5.701,3.133c3.723,1.92,6.922,4.914,10.333,7.323
		c3.417,2.414,7.603,3.548,10.561,6.38c2.896,2.771,4.795,6.576,7.445,9.586c5.997,6.812,5.632,15.875,8.498,24.062
		c2.938,8.397,3.393,19.338,1.554,28.193c-0.544,2.625-1.52,5.051-1.854,7.812c-0.396,3.229-1.065,4.426-3.479,6.561
		c2.803,2.955,5.043,0.869,8.42,1.205c0.735-2.812,3.521-4.674,3.78-7.664c0.574,0.781,1.38,1.512,1.977,2.287
		c2.765-6.104,1.354-12.691,3.282-19.014c1.084-3.543,0.874-7.021,1.711-10.568c1.079-4.576,2.338-8.75,2.104-13.635
		c2.803,4.021,1.315,11.01,2.212,15.73c0.971,5.137,4.755,8.992,6.479,13.604c0.65,1.733,0.188,3.961,0.452,5.797
		c0.294,2.05,1.192,3.988,1.185,6.269c-0.015,1.901-0.41,3.451-0.012,5.367c0.377,1.797,1.428,3.349,1.309,5.267
		c2.527-0.112,4.201,1.062,6.276-0.188c1.241-0.746,2.709-3.062,3.125-4.375c0.496-1.564-1.583-5.523-0.947-6.264
		c1.271-1.49,4.105,1.955,4.873,2.727c0.26-3.904-0.633-7.926-2.359-11.221c-0.893-1.695-2.709-3.138-3.208-5.006
		c-0.441-1.654-0.155-4.537,0.006-6.252c0.485-5.168,1.76-10.062,1.493-15.623c-0.194-4.062,0.354-8.492,0.068-12.5l0.332-2.082
		c3.104,1.825,4.666,3.532,8.707,4.328c4.062,0.801,23.492-0.131,33.84-2.192c0.395,1.692,0.838,3.375,1.414,5.021
		c2.938,8.396,3.393,19.334,1.553,28.188c-0.543,2.625-1.52,5.055-1.855,7.812c-0.396,3.229-1.062,4.426-3.475,6.561
		c2.803,2.955,5.043,0.869,8.42,1.205c0.734-2.816,3.52-4.674,3.779-7.664c0.57,0.781,1.379,1.508,1.977,2.287
		c2.762-6.102,1.354-12.695,3.283-19.014c1.084-3.543,0.873-7.021,1.711-10.568c0.488-2.074,1.008-4.064,1.414-6.076
		c0.066,2.715-0.045,5.482,0.381,7.735c0.971,5.133,4.756,8.991,6.482,13.603c0.646,1.735,0.188,3.961,0.449,5.797
		c0.297,2.051,1.191,3.987,1.184,6.27c-0.012,1.9-0.41,3.451-0.008,5.365c0.377,1.799,1.424,3.35,1.305,5.268
		c2.531-0.109,4.199,1.062,6.279-0.188c1.238-0.748,2.709-3.062,3.125-4.375c0.496-1.565-1.582-5.524-0.951-6.268
		c1.273-1.488,4.107,1.955,4.873,2.729c0.262-3.903-0.629-7.926-2.357-11.221c-0.893-1.695-2.711-3.139-3.209-5.008
		c-0.438-1.652-0.152-4.535,0.006-6.252c0.486-5.168,1.764-10.061,1.494-15.623c-0.059-1.197,0.152-3.652,0.152-3.652
		c-0.061-0.152-0.104-0.312-0.156-0.463c0.082-2.824-0.527-8.189-0.527-8.189C184.605,79.061,190.211,67.332,189.857,62.214z"/>
	<path fill="#E9A3C8" d="M62.626,16.674c3.075-3.23,10.614-5.37,14.504-4.825c3.894,0.545,7.583-0.627,12.847,2.291
		c1.938,1.072-6.873,7.751-8.133,9.756c-3.32,5.291-5.771,10.962-10.946,14.347c-7.131,4.667-13.74-5.784-14.044-7.844
		C55.62,21.921,60.059,19.37,62.626,16.674z"/>
	<path fill="none" stroke="#EAA3C8" stroke-width="4" stroke-miterlimit="10" d="M186.357,49.394
		c2.729,2.104,12.391,0.383,14.068-2.508c2.254-3.874-5.92-7.125-8.07-3.476c-2.639,4.482,6.854,14.24,11.312,14.421"/>
</g>
</svg>
